<svg width="125" height="100" viewBox="0 0 125 100" fill="none" xmlns="http://www.w3.org/2000/svg">
<g id="Group 34010">
<path id="Vector" d="M124.993 49.9986C124.993 36.7382 119.725 24.0208 110.349 14.6442C100.972 5.2677 88.2549 1.7389e-06 74.9945 0C61.7341 -1.73889e-06 49.0168 5.2677 39.6403 14.6442C30.2637 24.0208 24.996 36.7382 24.996 49.9986H40.6207C45.7983 49.9986 49.8361 45.6597 51.7326 40.8418C52.9777 37.6787 54.867 34.7718 57.3172 32.3213C62.0055 27.6331 68.3643 24.9993 74.9945 24.9993C81.6247 24.9993 87.9835 27.6331 92.6718 32.3213C97.3601 37.0096 99.9936 43.3684 99.9936 49.9986H124.993Z" fill="url(#paint0_linear_245_8883)"/>
<path id="Vector_2" d="M96.1907 69.1352C98.7034 63.069 99.9968 56.5674 99.9968 50.0017H124.993C124.993 77.6151 102.608 100 74.9948 100C70.6704 100 66.4739 99.4511 62.4722 98.4191C64.7364 97.8357 66.9619 97.0928 69.1317 96.1942C75.1978 93.6815 80.7096 89.9988 85.3525 85.3559C89.9953 80.7131 93.6783 75.2013 96.1907 69.1352Z" fill="#4392F9"/>
<path id="Vector_3" d="M-0.00012207 49.9955C-0.00012301 56.5615 1.29313 63.0631 3.80578 69.1293C6.31846 75.1954 10.0013 80.7072 14.6441 85.35C19.2869 89.9926 24.7987 93.6756 30.8648 96.1883C36.9308 98.701 43.4324 99.9941 49.9985 99.9941C56.5642 99.9941 63.0658 98.701 69.1319 96.1883C75.1981 93.6756 80.7099 89.9926 85.3527 85.35C89.9955 80.7072 93.6782 75.1954 96.1909 69.1293C98.7036 63.0631 99.9971 56.5615 99.9971 49.9955H84.3722C79.1947 49.9955 75.1568 54.3344 73.2604 59.1519C73.2065 59.2892 73.1511 59.4259 73.0947 59.5625C71.8383 62.5954 69.997 65.3515 67.6754 67.6728C65.3542 69.994 62.5981 71.8357 59.5652 73.092C56.5323 74.3484 53.2815 74.9949 49.9985 74.9949C46.7154 74.9949 43.4647 74.3484 40.4317 73.092C37.3985 71.8357 34.6428 69.994 32.3212 67.6728C29.9998 65.3515 28.1584 62.5954 26.9021 59.5625C25.6458 56.5293 24.9991 53.2785 24.9991 49.9955H-0.00012207Z" fill="url(#paint1_linear_245_8883)"/>
<path id="Vector_4" d="M0.00463867 49.9986C0.00463867 22.385 22.3897 0 50.003 0C54.3264 0 58.5215 0.548716 62.523 1.58035C53.937 3.79217 46.0167 8.26832 39.6404 14.6443C30.2639 24.0207 24.9963 36.7382 24.9963 49.9986H0.00463867Z" fill="#F83758"/>
</g>
<defs>
<linearGradient id="paint0_linear_245_8883" x1="124.993" y1="24.9993" x2="24.996" y2="24.9993" gradientUnits="userSpaceOnUse">
<stop stop-color="#CFE2FC"/>
<stop offset="1" stop-color="#4392F9"/>
</linearGradient>
<linearGradient id="paint1_linear_245_8883" x1="-0.000118792" y1="74.9949" x2="99.9971" y2="74.9949" gradientUnits="userSpaceOnUse">
<stop stop-color="#F8BCC6"/>
<stop offset="1" stop-color="#F83758"/>
</linearGradient>
</defs>
</svg>
